<svg width="24" height="24" viewBox="0 0 24 24" fill="none" xmlns="http://www.w3.org/2000/svg">
<rect width="24" height="24" fill="#1E1E1E"/>
<g id="Desktop - 1">
<rect width="1440" height="5490" transform="translate(-411 -47)" fill="#F8F7F3"/>
<g id="instagram 1" clip-path="url(#clip0_0_1)">
<g id="Group">
<g id="Group_2">
<path id="Vector" d="M17.9999 0H6.00016C2.70053 0 0.000305176 2.70023 0.000305176 5.99985V18.0001C0.000305176 21.2989 2.70053 24 6.00016 24H17.9999C21.2995 24 23.9997 21.2989 23.9997 18.0001V5.99985C23.9997 2.70023 21.2995 0 17.9999 0ZM21.9997 18.0001C21.9997 20.2051 20.206 22 17.9999 22H6.00016C3.79492 22 2.00035 20.2051 2.00035 18.0001V5.99985C2.00035 3.79432 3.79492 2.00005 6.00016 2.00005H17.9999C20.206 2.00005 21.9997 3.79432 21.9997 5.99985V18.0001Z" fill="black"/>
</g>
</g>
<g id="Group_3">
<g id="Group_4">
<path id="Vector_2" d="M18.5008 6.99974C19.3292 6.99974 20.0008 6.32819 20.0008 5.49978C20.0008 4.67137 19.3292 3.99982 18.5008 3.99982C17.6724 3.99982 17.0009 4.67137 17.0009 5.49978C17.0009 6.32819 17.6724 6.99974 18.5008 6.99974Z" fill="black"/>
</g>
</g>
<g id="Group_5">
<g id="Group_6">
<path id="Vector_3" d="M12 5.99988C8.68567 5.99988 6.00015 8.68569 6.00015 11.9997C6.00015 15.3125 8.68567 18.0002 12 18.0002C15.3134 18.0002 17.9999 15.3125 17.9999 11.9997C17.9999 8.68569 15.3134 5.99988 12 5.99988ZM12 16.0001C9.79113 16.0001 8.0002 14.2092 8.0002 11.9997C8.0002 9.79027 9.79113 7.99993 12 7.99993C14.2089 7.99993 15.9998 9.79027 15.9998 11.9997C15.9998 14.2092 14.2089 16.0001 12 16.0001Z" fill="black"/>
</g>
</g>
</g>
</g>
<defs>
<clipPath id="clip0_0_1">
<rect width="24" height="24" fill="white"/>
</clipPath>
</defs>
</svg>
